# xmcd CD database file
#
# Track frame offsets:
#	150
#	2369
#	15081
#	60225
#	77516
#	110249
#	127386
#	148908
#	162122
#	175452
#	187193
#	207588
#
# Disc length: 2854 seconds
#
# Revision: 0
# Processed by: cddbd v1.5.1PL0 Copyright (c) Steve Scherf et al.
# Submitted via: CDex 1.51
#
DISCID=a30b240c
DTITLE=チェリーベル休日出勤シリーズ（櫻井孝宏・鈴村健一・松来未祐） - BOYHOOD 少年時代
DYEAR=1900
DGENRE=Anime
TTITLE0=プロローグ
TTITLE1=第１話『なんでそんな事するの？』
TTITLE2=フリートーク“クラスのイタズラ坊主”
TTITLE3=第２話『夏休みの日記』
TTITLE4=フリートーク“死にそうな体験”
TTITLE5=第３話『先生、怒らないから』
TTITLE6=フリートーク“怖い先生”
TTITLE7=第４話『ちらりー鼻から牛乳』
TTITLE8=フリートーク“給食”
TTITLE9=第５話『お母さん言ったでしょ！』
TTITLE10=フリートーク“ファミコン”
TTITLE11=エンディング
EXTD=
EXTT0=
EXTT1=
EXTT2=
EXTT3=
EXTT4=
EXTT5=
EXTT6=
EXTT7=
EXTT8=
EXTT9=
EXTT10=
EXTT11=
PLAYORDER=
